<svg viewBox="0 0 32 32" xmlns="http://www.w3.org/2000/svg">
  <rect width="32" height="32" rx="6" fill="#F7F2EB"/>
  <path
    d="M26 17.5C24.5 23.5 19 28 13 28C6.37 28 1 22.63 1 16C1 9.37 6.37 4 13 4C13.73 4 14.45 4.07 15.15 4.2C12.15 6.3 10.25 9.8 10.25 13.75C10.25 20.38 15.38 25.38 22 25.38C23.6 25.38 25.1 25.08 26.45 24.52C26.67 22.22 26.67 19.67 26 17.5Z"
    fill="#3F3A36"
    fill-opacity="0.15"
  />
  <path
    d="M26 17.5C24.5 23.5 19 28 13 28C6.37 28 1 22.63 1 16C1 9.37 6.37 4 13 4C13.73 4 14.45 4.07 15.15 4.2C12.15 6.3 10.25 9.8 10.25 13.75C10.25 20.38 15.38 25.38 22 25.38C23.6 25.38 25.1 25.08 26.45 24.52"
    stroke="#3F3A36"
    stroke-width="2"
    stroke-linecap="round"
    stroke-linejoin="round"
    fill="none"
  />
</svg>